<svg width="36" height="36" viewBox="0 0 36 36" fill="none" xmlns="http://www.w3.org/2000/svg">
<g clip-path="url(#clip0_16_174)">
<path fill-rule="evenodd" clip-rule="evenodd" d="M35.9998 17.9997C35.9998 8.05858 27.9413 0 18 0C8.05873 0 0 8.05858 0 17.9997C0 27.9398 8.05873 36 18 36.0002C27.941 36.0002 35.9998 27.9398 35.9998 17.9997ZM20.9565 10.231C23.5868 10.4316 25.8144 12.1742 25.8144 12.1742C25.8144 12.1742 28.3008 15.781 28.729 22.8616C26.2202 25.7538 22.4138 25.7764 22.4138 25.7764L21.6179 24.7153C22.9682 24.2454 24.4945 23.405 25.8144 21.8902C24.2402 23.0807 21.8674 24.3191 18.0416 24.3191C14.2159 24.3191 11.8412 23.0791 10.2689 21.8902C11.5872 23.405 13.1135 24.2454 14.4653 24.7153L13.6694 25.7764C13.6694 25.7764 9.86148 25.7538 7.35425 22.8616C7.78083 15.781 10.2691 12.1742 10.2691 12.1742C10.2691 12.1742 12.3655 10.4923 15.127 10.231L15.3635 10.7048C13.1917 11.1955 11.8926 12.1214 10.7548 13.1458C12.7186 12.1429 14.6602 11.2026 18.0416 11.2026C21.423 11.2026 23.3631 12.1429 25.3287 13.1458C24.1877 12.1214 23.0979 11.2872 20.7184 10.7048L20.9565 10.231ZM13.1838 18.9749C13.1838 20.0488 13.9443 20.9181 14.8839 20.9181C15.8236 20.9181 16.5843 20.049 16.5843 18.9749C16.5843 17.902 15.8236 17.032 14.8839 17.032C13.9445 17.032 13.1838 17.902 13.1838 18.9749ZM19.499 18.9749C19.499 20.0488 20.2597 20.9181 21.1993 20.9181C22.1372 20.9181 22.8995 20.049 22.8995 18.9749C22.8995 17.902 22.1388 17.032 21.1993 17.032C20.2597 17.032 19.499 17.902 19.499 18.9749Z" fill="#232323"/>
</g>
<defs>
<clipPath id="clip0_16_174">
<rect width="36" height="36" fill="white"/>
</clipPath>
</defs>
</svg>
