<svg width="36" height="36" viewBox="0 0 36 36" fill="none" xmlns="http://www.w3.org/2000/svg">
<path fill-rule="evenodd" clip-rule="evenodd" d="M18 0C27.9412 0 36 8.05879 36 18C36 27.9412 27.9412 36 18 36C8.05879 36 0 27.9412 0 18C0 8.05879 8.05879 0 18 0ZM12.7127 11.2065C16.4649 11.2065 19.5062 14.2485 19.5062 18C19.5062 21.7515 16.4649 24.7935 12.7127 24.7935C8.96125 24.7935 5.91992 21.7515 5.91992 18C5.91992 14.2485 8.96125 11.2065 12.7127 11.2065ZM23.5825 11.7433C25.4811 11.7433 27.0197 14.5444 27.0197 18C27.0197 21.4556 25.4811 24.2567 23.5825 24.2567C21.6838 24.2567 20.1452 21.4556 20.1452 18C20.1452 14.5444 21.6838 11.7433 23.5825 11.7433ZM28.8831 12.2795C29.544 12.2795 30.0801 14.8403 30.0801 18C30.0801 21.1597 29.544 23.7205 28.8831 23.7205C28.2216 23.7205 27.6855 21.1597 27.6855 18C27.6855 14.8403 28.2216 12.2795 28.8831 12.2795Z" fill="#232323"/>
</svg>
