<svg width="464" height="366" viewBox="0 0 464 366" fill="none" xmlns="http://www.w3.org/2000/svg" preserveAspectRatio="none">
<path d="M337.586 328.619C378.834 314.977 441.949 330.164 459.938 290.628C477.884 251.188 419.161 215.805 407.955 173.967C399.115 140.965 417.067 103.939 401.755 73.3981C385.74 41.4547 356.79 14.3319 322.635 3.79111C289.313 -6.49259 254.576 9.23481 220.69 17.519C190.848 24.8143 163.873 36.7251 135.906 49.4405C101.452 65.1055 60.3936 71.3504 36.9493 101.059C12.0265 132.64 -8.003 177.251 5.02586 215.289C18.4566 254.501 70.9914 262.253 101.698 290.095C124.867 311.103 134.664 346.085 163.261 358.763C191.833 371.431 224.643 363.589 255.452 358.262C284.628 353.217 309.473 337.918 337.586 328.619Z" fill="#FFF22C"/>
</svg>
