<svg width="713" height="471" viewBox="0 0 713 471" fill="none" xmlns="http://www.w3.org/2000/svg" preserveAspectRatio="none">
<path d="M71.6708 161.072C31.2156 170.336 7.16232 158.679 0.19257 151.692C2.70314 157.953 33.7793 177.44 70.2507 187.213C106.722 196.985 116.981 189.962 158.033 219.11C190.874 242.429 217.291 228.939 226.395 219.279C245.553 227.67 286.627 247.704 297.661 260.712C308.695 273.72 337.35 267.159 350.299 262.252C354.369 273.115 387.281 280.538 401.098 275.863C412.152 272.124 423.412 284.634 427.661 291.357C432.437 292.637 448.292 297.723 473.505 307.829C498.719 317.936 523.694 299.406 533.03 288.877C544.358 283.071 574.025 278.642 602.065 307.375C637.116 343.292 673.17 338.992 724.131 362.42C764.9 381.162 783.049 366.573 787.027 356.936C807.899 360.667 853.253 371.33 867.692 384.134C885.741 400.139 918.909 411.818 953.218 414.031C987.527 416.243 986.897 434.224 1054.19 459.234C1108.02 479.243 1143.33 468.693 1154.25 460.918C1130.92 461.179 1083.13 457.497 1078.71 440.675C1074.28 423.852 1048.33 418.575 1035.91 418.039C991.358 408.894 907.221 379.369 927.08 334.432C946.939 289.494 888.143 231.393 856.263 207.959C822.983 144.595 763.714 167.804 757.107 171.618C751.822 174.669 737.538 168.236 731.056 164.637C733.437 159.226 734.24 146.504 718.405 138.91C698.611 129.418 686.913 105.343 682.682 84.6641C678.45 63.9853 697.222 56.4503 720.668 62.7326C744.114 69.0149 750.907 54.0826 743.883 43.8242C738.264 35.6174 746.195 23.0374 750.863 17.7732C770.852 -19.3112 731.097 -38.7123 708.721 -43.7774C717.227 -67.1859 685.254 -81.2441 668.205 -85.3471C673.719 -95.5037 679.312 -119.506 657.579 -134.265C635.846 -149.023 617.291 -124.584 610.731 -110.52C573.183 -149.619 545.618 -115.868 536.529 -94.1046C525.55 -94.8126 516.477 -81.7938 513.313 -75.1959C506.52 -60.2633 512.148 -44.7947 542.617 -28.254C566.993 -15.0214 555.981 6.97111 547.429 16.3133C511.281 26.1726 504.65 50.921 515.045 74.6475C523.361 93.6287 510.366 112.949 502.829 120.237C456.272 118.93 451.716 151.215 455.258 167.521C437.823 161.732 434.02 179.049 434.298 188.431C421.664 177.228 404.936 190.337 398.151 198.292C374.967 176.443 344.42 190.41 332.044 200.124C321.422 196.347 297.955 188.756 289.06 188.607C277.942 188.42 246.213 207.841 190.483 176.155C134.754 144.47 122.24 149.493 71.6708 161.072Z" fill="white"/>
</svg>
