<svg width="380" height="110" viewBox="0 0 380 110" fill="none" xmlns="http://www.w3.org/2000/svg" preserveAspectRatio="none">
<path d="M63.5 76.5436C65.6667 70.877 74.2 60.1437 91 62.5437C91.6667 56.5436 95.1 44.3436 103.5 43.5436C106.667 39.2102 116.1 33.1436 128.5 43.5436C125 38.3768 122.4 25.4434 140 15.0434C145 9.71003 157.6 -0.756633 168 0.0433675C181 1.04337 187.5 9.04328 191.5 15.0434C198.833 17.0435 212 25.5436 206 43.5436C210.5 44.8769 219.7 49.6435 220.5 58.0435C227.167 58.5434 241.1 61.2433 243.5 68.0435C248.333 68.5436 258.4 70.9438 260 76.5436H314C321.167 74.5437 337.8 71.7438 347 76.5436C355.45 80.9524 369.891 81.4803 377.613 81.1496C378.471 80.8082 379.121 80.8542 379.5 81.0435C378.93 81.0842 378.298 81.1203 377.613 81.1496C376.204 81.7101 374.237 83.3147 372 87.0435C367.5 94.5435 348 92.5435 339.5 91.5435C331 90.5435 316 103.543 305.5 97.5435C295 91.5435 284 91.5435 272 91.5435C260 91.5435 251.5 100.543 243.5 97.5435C237.1 95.1435 238.833 101.877 240.5 105.543C230.833 105.543 209.5 105.043 201.5 103.043C193.5 101.043 188.5 103.877 187 105.543C183.333 108.21 172.9 111.943 160.5 105.543C148.1 99.1435 134 101.21 128.5 103.043H87C83.5 103.043 52 114.543 42 103.043C32 91.5435 21 91.5435 17 91.5435C13.8 91.5435 4.33333 88.5435 0 87.0435C0.833333 81.5434 6.1 71.1433 20.5 73.5435C38.5 76.5436 38 76.5436 42 76.5436C46 76.5436 52 66.0438 63.5 76.5436Z" fill="white"/>
</svg>
