<svg width="450" height="114" viewBox="0 0 450 114" fill="none" xmlns="http://www.w3.org/2000/svg" preserveAspectRatio="none">
<path d="M122.819 42.9909C104.955 54.2688 6.6417 38.9843 0.74291 38.0672C15.0048 45.6389 47.4611 61.3937 63.1912 63.8392C82.8538 66.8961 79.8059 86.5011 100.383 83.6765C120.96 80.8519 139.875 75.7612 183.133 82.4864C217.74 87.8666 251.907 89.1627 264.664 89.1383C286.568 116.638 315.315 113.076 332.569 105.719C346.373 99.8334 393.986 107.905 416.067 112.677C470.037 117.855 447.252 93.4302 429.113 80.5708C442.435 72.6027 430.667 44.6704 412.971 41.9192C398.814 39.7182 384.401 22.7524 378.965 14.5447C345.711 -9.90085 306.01 4.54134 290.315 14.8181C249.441 -12.4186 216.4 6.67334 204.989 19.6239C160.07 10.6325 140.682 31.7129 122.819 42.9909Z" fill="white"/>
</svg>
