<svg width="24" height="24" viewBox="0 0 24 24" fill="none" xmlns="http://www.w3.org/2000/svg">
<path d="M11.031 11.8853C10.689 11.148 10.5 10.3065 10.5 9.375C10.5 8.4435 10.689 7.50825 11.031 6.63075C11.3723 5.7525 11.8665 4.93125 12.4777 4.227C13.0882 3.5235 13.8158 2.93475 14.6227 2.52375C15.4305 2.1105 16.3185 1.875 17.25 1.875C18.1815 1.875 19.0695 2.064 19.8773 2.40525C20.685 2.74725 21.4118 3.2415 22.0223 3.852C22.632 4.4625 23.1278 5.19 23.469 5.99775C23.8118 6.80475 24 7.6935 24 8.625C24 9.5565 23.811 10.4453 23.469 11.2523C23.1278 12.06 22.6335 12.7875 22.0223 13.398C21.4125 14.0085 12.8077 21.783 12 22.125C11.1923 21.783 2.5875 14.0085 1.977 13.398C1.3665 12.7875 0.87225 12.06 0.53025 11.2523C0.189 10.4453 0 9.5565 0 8.625C0 7.6935 0.189 6.80475 0.53025 5.99775C0.87225 5.19 1.36575 4.4625 1.977 3.852C2.5875 3.2415 3.315 2.74725 4.12275 2.40525C4.92975 2.064 5.81775 1.875 6.75 1.875C7.68225 1.875 8.57025 2.1105 9.37725 2.52225C10.185 2.93475 10.9117 3.52275 11.523 4.22625C12.1335 4.9305 12.6277 5.75175 12.9697 6.63C13.311 7.50825 13.5 8.4435 13.5 9.375C13.5 10.3065 13.311 11.148 12.9697 11.8853C12.6277 12.6225 12.135 13.2562 11.523 13.7738" fill="#D61515"/>
</svg>
