<svg width="24" height="24" viewBox="0 0 24 24" fill="none" xmlns="http://www.w3.org/2000/svg">
<path d="M20.175 11.7748C20.1 11.4748 19.8 11.2498 19.5 11.2498H15L17.925 2.47482C18 2.17482 17.925 1.79982 17.625 1.64982C17.325 1.42482 17.025 1.49982 16.725 1.64982L3.97495 11.3998C3.74995 11.6248 3.59995 11.9248 3.74995 12.2248C3.89995 12.5248 4.19995 12.7498 4.49995 12.7498H8.99995L6.07495 21.5248C5.99995 21.8248 6.07495 22.1998 6.37495 22.3498C6.44995 22.4248 6.59995 22.4998 6.74995 22.4998C6.89995 22.4998 7.04995 22.4248 7.19995 22.3498L19.95 12.5998C20.175 12.3748 20.325 12.0748 20.175 11.7748Z" fill="#4C65BA"/>
</svg>
