<svg width="369" height="1216" viewBox="0 0 369 1216" fill="none" xmlns="http://www.w3.org/2000/svg" preserveAspectRatio="none">
<path d="M394.494 887.178C302.461 856.739 161.637 890.625 121.499 802.412C81.4581 714.412 212.482 635.463 237.485 542.114C257.208 468.478 217.154 385.865 251.318 317.722C287.052 246.449 351.644 185.932 427.853 162.413C502.202 139.468 579.707 174.56 655.316 193.044C721.899 209.321 782.087 235.897 844.487 264.268C921.362 299.22 1012.97 313.154 1065.28 379.439C1120.89 449.905 1165.58 549.442 1136.51 634.314C1106.54 721.804 989.326 739.099 920.813 801.221C869.117 848.095 847.258 926.149 783.452 954.437C719.701 982.701 646.494 965.204 577.752 953.318C512.654 942.061 457.22 907.925 394.494 887.178Z" fill="#FFF22C"/>
<path d="M394.14 567.47L354.938 585.431L348.138 630.014L318.217 595.853L275.307 601.187L296.016 562.114L276.297 520.831L319.018 530.842L349.741 499.992L355.433 545.254L394.14 567.47Z" fill="white"/>
<path d="M341.513 366.427L339.035 380.462L349.883 390.685L334.973 392.407L328.365 405.079L321.628 392.108L306.697 389.718L317.443 379.979L314.822 365.83L328.201 372.782L341.513 366.427Z" fill="white"/>
</svg>
