<svg width="124" height="124" viewBox="0 0 124 124" fill="none" xmlns="http://www.w3.org/2000/svg">
<path d="M113.665 61.9999C113.665 90.5346 90.5334 113.667 61.9987 113.667C33.464 113.667 10.332 90.5346 10.332 61.9999C10.332 33.4652 33.464 10.3333 61.9987 10.3333C90.5334 10.3333 113.665 33.4652 113.665 61.9999ZM28.4154 61.9999C28.4154 80.5475 43.4511 95.5832 61.9987 95.5832C80.5462 95.5832 95.582 80.5475 95.582 61.9999C95.582 43.4524 80.5462 28.4166 61.9987 28.4166C43.4511 28.4166 28.4154 43.4524 28.4154 61.9999Z" fill="#FFF2F8"/>
<path d="M61.9987 10.3334C68.7836 10.3334 75.5022 11.6698 81.7707 14.2663C88.0391 16.8628 93.7348 20.6685 98.5325 25.4662C103.33 30.2639 107.136 35.9596 109.732 42.2281C112.329 48.4966 113.665 55.2151 113.665 62.0001L95.582 62.0001C95.582 57.5899 94.7134 53.2228 93.0256 49.1483C91.3379 45.0738 88.8642 41.3716 85.7457 38.2531C82.6272 35.1346 78.925 32.6609 74.8505 30.9731C70.776 29.2854 66.4089 28.4168 61.9987 28.4168L61.9987 10.3334Z" fill="#FF006F"/>
</svg>
