<svg width="579" height="457" viewBox="0 0 579 457" fill="none" xmlns="http://www.w3.org/2000/svg" preserveAspectRatio="none">
<path d="M157.861 410.694C106.336 393.652 27.4944 412.624 5.02268 363.237C-17.3946 313.97 55.9604 269.77 69.9584 217.507C81.0003 176.282 58.5759 130.03 77.7031 91.8796C97.7088 51.977 133.871 18.0959 176.537 4.92864C218.163 -7.91743 261.554 11.7288 303.884 22.0772C341.161 31.1902 374.858 46.0689 409.793 61.9526C452.833 81.5208 504.121 89.3218 533.407 126.432C564.54 165.883 589.56 221.61 573.285 269.126C556.508 318.108 490.883 327.791 452.525 362.571C423.583 388.813 411.345 432.512 375.623 448.35C339.931 464.174 298.946 454.378 260.46 447.723C224.014 441.421 192.979 422.31 157.861 410.694Z" fill="#FFF22C"/>
</svg>
