<svg width="105" height="94" viewBox="0 0 105 94" fill="none" xmlns="http://www.w3.org/2000/svg" preserveAspectRatio="none">
<path d="M48.9897 46.9822C47.1667 44.483 45.8376 41.4813 45.1475 38.0035C44.4574 34.5257 44.4702 30.8939 45.097 27.3644C45.7204 23.8326 46.9573 20.4003 48.7177 17.3181C50.4758 14.2393 52.7558 11.5022 55.4643 9.36985C58.1739 7.22856 61.3148 5.69145 64.7926 5.00136C68.2704 4.31127 71.7258 4.35905 74.9944 5.03471C78.2635 5.71317 81.343 7.02006 84.0746 8.84711C86.8034 10.6747 89.1932 13.0236 91.0657 15.7865C92.9432 18.5456 94.3045 21.7243 94.9946 25.2021C95.6847 28.6799 95.6375 32.1381 94.9584 35.4044C94.2828 38.673 92.9764 41.7553 91.1466 44.4874C89.3224 47.2185 62.9559 82.6195 60.1935 84.4948C56.9243 83.8163 19.0386 61.1647 16.307 59.3376C13.5754 57.5106 11.1911 55.1606 9.31586 52.3982C7.44394 49.6381 6.07988 46.4599 5.3898 42.9821C4.69971 39.5043 4.74693 36.0461 5.42314 32.7804C6.1016 29.5112 7.40514 26.4295 9.23499 23.6973C11.062 20.9657 13.412 18.5815 16.1744 16.7062C18.9346 14.8343 22.1099 13.4708 25.5905 12.7801C29.0711 12.0895 32.5609 12.3109 35.8789 13.2503C39.2003 14.192 42.3493 15.8489 45.1525 18.0226C47.9536 20.1997 50.4073 22.8997 52.3348 25.9253C54.2595 28.9514 55.658 32.3032 56.3481 35.781C57.0382 39.2588 56.956 42.5406 56.2281 45.5459C55.4974 48.5518 54.1272 51.283 52.2257 53.6685" fill="#D61515"/>
</svg>
