<svg width="36" height="36" viewBox="0 0 36 36" fill="none" xmlns="http://www.w3.org/2000/svg">
<g clip-path="url(#clip0_29_370)">
<path fill-rule="evenodd" clip-rule="evenodd" d="M35.9998 17.9997C35.9998 8.05858 27.9413 0 18 0C8.05873 0 0 8.05858 0 17.9997C0 27.9398 8.05873 36 18 36.0002C27.941 36.0002 35.9998 27.9398 35.9998 17.9997ZM20.9565 10.2305C23.5868 10.4311 25.8144 12.1737 25.8144 12.1737C25.8144 12.1737 28.3008 15.7805 28.729 22.8611C26.2202 25.7533 22.4138 25.7759 22.4138 25.7759L21.6179 24.7148C22.9682 24.2449 24.4945 23.4045 25.8144 21.8897C24.2402 23.0802 21.8674 24.3186 18.0416 24.3186C14.2159 24.3186 11.8412 23.0786 10.2689 21.8897C11.5872 23.4045 13.1135 24.2449 14.4653 24.7148L13.6694 25.7759C13.6694 25.7759 9.86148 25.7533 7.35425 22.8611C7.78083 15.7805 10.2691 12.1737 10.2691 12.1737C10.2691 12.1737 12.3655 10.4918 15.127 10.2305L15.3635 10.7043C13.1917 11.195 11.8926 12.121 10.7548 13.1453C12.7186 12.1424 14.6602 11.2021 18.0416 11.2021C21.423 11.2021 23.3631 12.1424 25.3287 13.1453C24.1877 12.121 23.0979 11.2867 20.7184 10.7043L20.9565 10.2305ZM13.1838 18.9744C13.1838 20.0483 13.9443 20.9177 14.8839 20.9177C15.8236 20.9177 16.5843 20.0485 16.5843 18.9744C16.5843 17.9015 15.8236 17.0315 14.8839 17.0315C13.9445 17.0315 13.1838 17.9015 13.1838 18.9744ZM19.499 18.9744C19.499 20.0483 20.2597 20.9177 21.1993 20.9177C22.1372 20.9177 22.8995 20.0485 22.8995 18.9744C22.8995 17.9015 22.1388 17.0315 21.1993 17.0315C20.2597 17.0315 19.499 17.9015 19.499 18.9744Z" fill="#797979"/>
</g>
<defs>
<clipPath id="clip0_29_370">
<rect width="36" height="36" fill="white"/>
</clipPath>
</defs>
</svg>
